<mxfile host="app.diagrams.net" modified="2023-11-13T17:08:04.517Z" agent="Mozilla/5.0 (Windows NT 10.0; Win64; x64) AppleWebKit/537.36 (KHTML, like Gecko) Chrome/119.0.0.0 Safari/537.36 Edg/119.0.0.0" etag="9F5DopggNlEXf1QGY1tG" version="22.1.0" type="device">
  <diagram name="Page-1" id="0783ab3e-0a74-02c8-0abd-f7b4e66b4bec">
    <mxGraphModel dx="1042" dy="535" grid="1" gridSize="10" guides="1" tooltips="1" connect="1" arrows="1" fold="1" page="1" pageScale="1" pageWidth="850" pageHeight="1100" background="none" math="0" shadow="0">
      <root>
        <mxCell id="0" />
        <mxCell id="1" parent="0" />
        <mxCell id="cFjjXUgJnyYVzmF9R8VA-1" value="" style="ellipse;whiteSpace=wrap;html=1;rounded=0;shadow=0;comic=0;labelBackgroundColor=none;strokeWidth=1;fillColor=#000000;fontFamily=Verdana;fontSize=12;align=center;" vertex="1" parent="1">
          <mxGeometry x="404.9999999999999" y="40" width="40" height="40" as="geometry" />
        </mxCell>
        <mxCell id="cFjjXUgJnyYVzmF9R8VA-2" value="Покупка билета на концерт" style="rounded=1;whiteSpace=wrap;html=1;shadow=0;comic=0;labelBackgroundColor=none;strokeWidth=1;fontFamily=Verdana;fontSize=12;align=center;arcSize=50;" vertex="1" parent="1">
          <mxGeometry x="358" y="120" width="135" height="50" as="geometry" />
        </mxCell>
        <mxCell id="cFjjXUgJnyYVzmF9R8VA-3" value="" style="whiteSpace=wrap;html=1;rounded=0;shadow=0;comic=0;labelBackgroundColor=none;strokeWidth=1;fillColor=#000000;fontFamily=Verdana;fontSize=12;align=center;rotation=0;" vertex="1" parent="1">
          <mxGeometry x="352" y="229.9999999999999" width="147" height="10" as="geometry" />
        </mxCell>
        <mxCell id="cFjjXUgJnyYVzmF9R8VA-4" value="Заполнение личных данных" style="rounded=1;whiteSpace=wrap;html=1;shadow=0;comic=0;labelBackgroundColor=none;strokeWidth=1;fontFamily=Verdana;fontSize=12;align=center;arcSize=50;" vertex="1" parent="1">
          <mxGeometry x="540" y="400" width="150" height="50" as="geometry" />
        </mxCell>
        <mxCell id="cFjjXUgJnyYVzmF9R8VA-5" value="Указать реквизиты оплаты" style="rounded=1;whiteSpace=wrap;html=1;shadow=0;comic=0;labelBackgroundColor=none;strokeWidth=1;fontFamily=Verdana;fontSize=12;align=center;arcSize=50;" vertex="1" parent="1">
          <mxGeometry x="540" y="570" width="150" height="50" as="geometry" />
        </mxCell>
        <mxCell id="cFjjXUgJnyYVzmF9R8VA-6" value="Выбор концерта" style="rounded=1;whiteSpace=wrap;html=1;shadow=0;comic=0;labelBackgroundColor=none;strokeWidth=1;fontFamily=Verdana;fontSize=12;align=center;arcSize=50;" vertex="1" parent="1">
          <mxGeometry x="220" y="310" width="160" height="50" as="geometry" />
        </mxCell>
        <mxCell id="cFjjXUgJnyYVzmF9R8VA-7" value="Выбор места" style="rounded=1;whiteSpace=wrap;html=1;shadow=0;comic=0;labelBackgroundColor=none;strokeWidth=1;fontFamily=Verdana;fontSize=12;align=center;arcSize=50;" vertex="1" parent="1">
          <mxGeometry x="220" y="400" width="160" height="50" as="geometry" />
        </mxCell>
        <mxCell id="cFjjXUgJnyYVzmF9R8VA-8" value="Забронировать" style="rounded=1;whiteSpace=wrap;html=1;shadow=0;comic=0;labelBackgroundColor=none;strokeWidth=1;fontFamily=Verdana;fontSize=12;align=center;arcSize=50;" vertex="1" parent="1">
          <mxGeometry x="343" y="560" width="150" height="40" as="geometry" />
        </mxCell>
        <mxCell id="cFjjXUgJnyYVzmF9R8VA-9" value="Оплатить" style="rounded=1;whiteSpace=wrap;html=1;shadow=0;comic=0;labelBackgroundColor=none;strokeWidth=1;fontFamily=Verdana;fontSize=12;align=center;arcSize=50;" vertex="1" parent="1">
          <mxGeometry x="120" y="590" width="140" height="40" as="geometry" />
        </mxCell>
        <mxCell id="cFjjXUgJnyYVzmF9R8VA-10" value="Оплатить в течение суток" style="rounded=1;whiteSpace=wrap;html=1;shadow=0;comic=0;labelBackgroundColor=none;strokeWidth=1;fontFamily=Verdana;fontSize=12;align=center;arcSize=50;" vertex="1" parent="1">
          <mxGeometry x="343" y="660" width="150" height="40" as="geometry" />
        </mxCell>
        <mxCell id="cFjjXUgJnyYVzmF9R8VA-11" value="" style="rhombus;whiteSpace=wrap;html=1;" vertex="1" parent="1">
          <mxGeometry x="230" y="490" width="140" height="50" as="geometry" />
        </mxCell>
        <mxCell id="cFjjXUgJnyYVzmF9R8VA-12" value="" style="rhombus;whiteSpace=wrap;html=1;" vertex="1" parent="1">
          <mxGeometry x="230" y="740" width="140" height="50" as="geometry" />
        </mxCell>
        <mxCell id="cFjjXUgJnyYVzmF9R8VA-13" value="" style="whiteSpace=wrap;html=1;rounded=0;shadow=0;comic=0;labelBackgroundColor=none;strokeWidth=1;fillColor=#000000;fontFamily=Verdana;fontSize=12;align=center;rotation=0;" vertex="1" parent="1">
          <mxGeometry x="343" y="849.9999999999999" width="147" height="10" as="geometry" />
        </mxCell>
        <mxCell id="cFjjXUgJnyYVzmF9R8VA-14" value="Получить билеты" style="rounded=1;whiteSpace=wrap;html=1;shadow=0;comic=0;labelBackgroundColor=none;strokeWidth=1;fontFamily=Verdana;fontSize=12;align=center;arcSize=50;" vertex="1" parent="1">
          <mxGeometry x="341.5" y="920" width="150" height="40" as="geometry" />
        </mxCell>
        <mxCell id="cFjjXUgJnyYVzmF9R8VA-15" value="" style="shape=mxgraph.bpmn.shape;html=1;verticalLabelPosition=bottom;labelBackgroundColor=#ffffff;verticalAlign=top;perimeter=ellipsePerimeter;outline=end;symbol=terminate;rounded=0;shadow=0;comic=0;strokeWidth=1;fontFamily=Verdana;fontSize=12;align=center;" vertex="1" parent="1">
          <mxGeometry x="396.5" y="1010" width="40" height="40" as="geometry" />
        </mxCell>
        <mxCell id="cFjjXUgJnyYVzmF9R8VA-16" style="edgeStyle=orthogonalEdgeStyle;rounded=0;html=1;labelBackgroundColor=none;startArrow=none;startFill=0;startSize=5;endArrow=classicThin;endFill=1;endSize=5;jettySize=auto;orthogonalLoop=1;strokeWidth=1;fontFamily=Verdana;fontSize=12;exitX=0.5;exitY=1;exitDx=0;exitDy=0;entryX=0.5;entryY=0;entryDx=0;entryDy=0;" edge="1" parent="1" source="cFjjXUgJnyYVzmF9R8VA-1" target="cFjjXUgJnyYVzmF9R8VA-2">
          <mxGeometry relative="1" as="geometry">
            <mxPoint x="450.000047259035" y="89.95652173913038" as="sourcePoint" />
            <mxPoint x="696.000047259035" y="139.95652173913038" as="targetPoint" />
          </mxGeometry>
        </mxCell>
        <mxCell id="cFjjXUgJnyYVzmF9R8VA-17" style="edgeStyle=orthogonalEdgeStyle;rounded=0;html=1;labelBackgroundColor=none;startArrow=none;startFill=0;startSize=5;endArrow=classicThin;endFill=1;endSize=5;jettySize=auto;orthogonalLoop=1;strokeWidth=1;fontFamily=Verdana;fontSize=12;exitX=0.5;exitY=1;exitDx=0;exitDy=0;entryX=0.5;entryY=0;entryDx=0;entryDy=0;" edge="1" parent="1" source="cFjjXUgJnyYVzmF9R8VA-2" target="cFjjXUgJnyYVzmF9R8VA-3">
          <mxGeometry relative="1" as="geometry">
            <mxPoint x="450.000047259035" y="209.95652173913038" as="sourcePoint" />
            <mxPoint x="696.000047259035" y="259.9565217391304" as="targetPoint" />
          </mxGeometry>
        </mxCell>
        <mxCell id="cFjjXUgJnyYVzmF9R8VA-18" style="edgeStyle=orthogonalEdgeStyle;rounded=0;html=1;labelBackgroundColor=none;startArrow=none;startFill=0;startSize=5;endArrow=classicThin;endFill=1;endSize=5;jettySize=auto;orthogonalLoop=1;strokeWidth=1;fontFamily=Verdana;fontSize=12;entryX=0.5;entryY=0;entryDx=0;entryDy=0;" edge="1" parent="1" target="cFjjXUgJnyYVzmF9R8VA-4">
          <mxGeometry relative="1" as="geometry">
            <mxPoint x="440" y="240" as="sourcePoint" />
            <mxPoint x="666.000047259035" y="339.9565217391304" as="targetPoint" />
            <Array as="points">
              <mxPoint x="440" y="270" />
              <mxPoint x="615" y="270" />
            </Array>
          </mxGeometry>
        </mxCell>
        <mxCell id="cFjjXUgJnyYVzmF9R8VA-19" style="edgeStyle=orthogonalEdgeStyle;rounded=0;html=1;labelBackgroundColor=none;startArrow=none;startFill=0;startSize=5;endArrow=classicThin;endFill=1;endSize=5;jettySize=auto;orthogonalLoop=1;strokeWidth=1;fontFamily=Verdana;fontSize=12;entryX=0.5;entryY=0;entryDx=0;entryDy=0;" edge="1" parent="1" target="cFjjXUgJnyYVzmF9R8VA-6">
          <mxGeometry relative="1" as="geometry">
            <mxPoint x="412" y="240" as="sourcePoint" />
            <mxPoint x="546.000047259035" y="389.9565217391304" as="targetPoint" />
            <Array as="points">
              <mxPoint x="412" y="260" />
              <mxPoint x="300" y="260" />
            </Array>
          </mxGeometry>
        </mxCell>
        <mxCell id="cFjjXUgJnyYVzmF9R8VA-20" style="edgeStyle=orthogonalEdgeStyle;rounded=0;html=1;labelBackgroundColor=none;startArrow=none;startFill=0;startSize=5;endArrow=classicThin;endFill=1;endSize=5;jettySize=auto;orthogonalLoop=1;strokeWidth=1;fontFamily=Verdana;fontSize=12;exitX=0.5;exitY=1;exitDx=0;exitDy=0;" edge="1" parent="1" source="cFjjXUgJnyYVzmF9R8VA-6" target="cFjjXUgJnyYVzmF9R8VA-7">
          <mxGeometry relative="1" as="geometry">
            <mxPoint x="350.000047259035" y="379.9565217391304" as="sourcePoint" />
            <mxPoint x="596.000047259035" y="429.9565217391304" as="targetPoint" />
          </mxGeometry>
        </mxCell>
        <mxCell id="cFjjXUgJnyYVzmF9R8VA-23" style="edgeStyle=orthogonalEdgeStyle;rounded=0;html=1;labelBackgroundColor=none;startArrow=none;startFill=0;startSize=5;endArrow=classicThin;endFill=1;endSize=5;jettySize=auto;orthogonalLoop=1;strokeWidth=1;fontFamily=Verdana;fontSize=12;exitX=0.5;exitY=1;exitDx=0;exitDy=0;" edge="1" parent="1" source="cFjjXUgJnyYVzmF9R8VA-7" target="cFjjXUgJnyYVzmF9R8VA-11">
          <mxGeometry relative="1" as="geometry">
            <mxPoint x="300.000047259035" y="509.9565217391304" as="sourcePoint" />
            <mxPoint x="546.000047259035" y="559.9565217391304" as="targetPoint" />
          </mxGeometry>
        </mxCell>
        <mxCell id="cFjjXUgJnyYVzmF9R8VA-24" style="edgeStyle=orthogonalEdgeStyle;rounded=0;html=1;labelBackgroundColor=none;startArrow=none;startFill=0;startSize=5;endArrow=classicThin;endFill=1;endSize=5;jettySize=auto;orthogonalLoop=1;strokeWidth=1;fontFamily=Verdana;fontSize=12;entryX=0.5;entryY=0;entryDx=0;entryDy=0;exitX=1;exitY=0.5;exitDx=0;exitDy=0;" edge="1" parent="1" source="cFjjXUgJnyYVzmF9R8VA-11" target="cFjjXUgJnyYVzmF9R8VA-8">
          <mxGeometry relative="1" as="geometry">
            <mxPoint x="400" y="490" as="sourcePoint" />
            <mxPoint x="646.000047259035" y="559.9565217391304" as="targetPoint" />
          </mxGeometry>
        </mxCell>
        <mxCell id="cFjjXUgJnyYVzmF9R8VA-25" style="edgeStyle=orthogonalEdgeStyle;rounded=0;html=1;labelBackgroundColor=none;startArrow=none;startFill=0;startSize=5;endArrow=classicThin;endFill=1;endSize=5;jettySize=auto;orthogonalLoop=1;strokeWidth=1;fontFamily=Verdana;fontSize=12;exitX=0.5;exitY=1;exitDx=0;exitDy=0;entryX=0.5;entryY=0;entryDx=0;entryDy=0;" edge="1" parent="1" source="cFjjXUgJnyYVzmF9R8VA-4" target="cFjjXUgJnyYVzmF9R8VA-5">
          <mxGeometry relative="1" as="geometry">
            <mxPoint x="300.000047259035" y="589.9565217391304" as="sourcePoint" />
            <mxPoint x="546.000047259035" y="639.9565217391304" as="targetPoint" />
          </mxGeometry>
        </mxCell>
        <mxCell id="cFjjXUgJnyYVzmF9R8VA-26" style="edgeStyle=orthogonalEdgeStyle;rounded=0;html=1;labelBackgroundColor=none;startArrow=none;startFill=0;startSize=5;endArrow=classicThin;endFill=1;endSize=5;jettySize=auto;orthogonalLoop=1;strokeWidth=1;fontFamily=Verdana;fontSize=12;exitX=0;exitY=0.5;exitDx=0;exitDy=0;" edge="1" parent="1" source="cFjjXUgJnyYVzmF9R8VA-11" target="cFjjXUgJnyYVzmF9R8VA-9">
          <mxGeometry relative="1" as="geometry">
            <mxPoint x="280.000047259035" y="629.9965217391303" as="sourcePoint" />
            <mxPoint x="526.000047259035" y="679.9965217391303" as="targetPoint" />
          </mxGeometry>
        </mxCell>
        <mxCell id="cFjjXUgJnyYVzmF9R8VA-27" style="edgeStyle=orthogonalEdgeStyle;rounded=0;html=1;labelBackgroundColor=none;startArrow=none;startFill=0;startSize=5;endArrow=classicThin;endFill=1;endSize=5;jettySize=auto;orthogonalLoop=1;strokeWidth=1;fontFamily=Verdana;fontSize=12;exitX=0.5;exitY=1;exitDx=0;exitDy=0;entryX=0.5;entryY=0;entryDx=0;entryDy=0;" edge="1" parent="1" source="cFjjXUgJnyYVzmF9R8VA-13" target="cFjjXUgJnyYVzmF9R8VA-14">
          <mxGeometry relative="1" as="geometry">
            <mxPoint x="438.000047259035" y="889.9965217391303" as="sourcePoint" />
            <mxPoint x="684.000047259035" y="939.9965217391303" as="targetPoint" />
          </mxGeometry>
        </mxCell>
        <mxCell id="cFjjXUgJnyYVzmF9R8VA-28" style="edgeStyle=orthogonalEdgeStyle;rounded=0;html=1;labelBackgroundColor=none;startArrow=none;startFill=0;startSize=5;endArrow=classicThin;endFill=1;endSize=5;jettySize=auto;orthogonalLoop=1;strokeWidth=1;fontFamily=Verdana;fontSize=12;exitX=0.5;exitY=1;exitDx=0;exitDy=0;entryX=0.407;entryY=-0.308;entryDx=0;entryDy=0;entryPerimeter=0;" edge="1" parent="1" source="cFjjXUgJnyYVzmF9R8VA-12" target="cFjjXUgJnyYVzmF9R8VA-13">
          <mxGeometry relative="1" as="geometry">
            <mxPoint x="341.500047259035" y="789.9965217391303" as="sourcePoint" />
            <mxPoint x="587.500047259035" y="839.9965217391303" as="targetPoint" />
          </mxGeometry>
        </mxCell>
        <mxCell id="cFjjXUgJnyYVzmF9R8VA-29" style="edgeStyle=orthogonalEdgeStyle;rounded=0;html=1;labelBackgroundColor=none;startArrow=none;startFill=0;startSize=5;endArrow=classicThin;endFill=1;endSize=5;jettySize=auto;orthogonalLoop=1;strokeWidth=1;fontFamily=Verdana;fontSize=12;exitX=0.5;exitY=1;exitDx=0;exitDy=0;entryX=1;entryY=0.5;entryDx=0;entryDy=0;" edge="1" parent="1" source="cFjjXUgJnyYVzmF9R8VA-10" target="cFjjXUgJnyYVzmF9R8VA-12">
          <mxGeometry relative="1" as="geometry">
            <mxPoint x="470.000047259035" y="819.9965217391303" as="sourcePoint" />
            <mxPoint x="716.000047259035" y="869.9965217391303" as="targetPoint" />
          </mxGeometry>
        </mxCell>
        <mxCell id="cFjjXUgJnyYVzmF9R8VA-30" style="edgeStyle=orthogonalEdgeStyle;rounded=0;html=1;labelBackgroundColor=none;startArrow=none;startFill=0;startSize=5;endArrow=classicThin;endFill=1;endSize=5;jettySize=auto;orthogonalLoop=1;strokeWidth=1;fontFamily=Verdana;fontSize=12;exitX=0.5;exitY=1;exitDx=0;exitDy=0;entryX=0.63;entryY=-0.068;entryDx=0;entryDy=0;entryPerimeter=0;" edge="1" parent="1" source="cFjjXUgJnyYVzmF9R8VA-5" target="cFjjXUgJnyYVzmF9R8VA-13">
          <mxGeometry relative="1" as="geometry">
            <mxPoint x="470.000047259035" y="739.9965217391303" as="sourcePoint" />
            <mxPoint x="716.000047259035" y="789.9965217391303" as="targetPoint" />
          </mxGeometry>
        </mxCell>
        <mxCell id="cFjjXUgJnyYVzmF9R8VA-31" style="edgeStyle=orthogonalEdgeStyle;rounded=0;html=1;labelBackgroundColor=none;startArrow=none;startFill=0;startSize=5;endArrow=classicThin;endFill=1;endSize=5;jettySize=auto;orthogonalLoop=1;strokeWidth=1;fontFamily=Verdana;fontSize=12;exitX=0.5;exitY=1;exitDx=0;exitDy=0;entryX=0.5;entryY=0;entryDx=0;entryDy=0;" edge="1" parent="1" source="cFjjXUgJnyYVzmF9R8VA-8" target="cFjjXUgJnyYVzmF9R8VA-10">
          <mxGeometry relative="1" as="geometry">
            <mxPoint x="425.000047259035" y="729.9965217391303" as="sourcePoint" />
            <mxPoint x="671.000047259035" y="779.9965217391303" as="targetPoint" />
          </mxGeometry>
        </mxCell>
        <mxCell id="cFjjXUgJnyYVzmF9R8VA-32" style="edgeStyle=orthogonalEdgeStyle;rounded=0;html=1;labelBackgroundColor=none;startArrow=none;startFill=0;startSize=5;endArrow=classicThin;endFill=1;endSize=5;jettySize=auto;orthogonalLoop=1;strokeWidth=1;fontFamily=Verdana;fontSize=12;exitX=0.5;exitY=1;exitDx=0;exitDy=0;entryX=0;entryY=0.5;entryDx=0;entryDy=0;" edge="1" parent="1" source="cFjjXUgJnyYVzmF9R8VA-9" target="cFjjXUgJnyYVzmF9R8VA-12">
          <mxGeometry relative="1" as="geometry">
            <mxPoint x="260" y="620" as="sourcePoint" />
            <mxPoint x="616.000047259035" y="799.9565217391304" as="targetPoint" />
          </mxGeometry>
        </mxCell>
        <mxCell id="cFjjXUgJnyYVzmF9R8VA-33" style="edgeStyle=orthogonalEdgeStyle;rounded=0;html=1;labelBackgroundColor=none;startArrow=none;startFill=0;startSize=5;endArrow=classicThin;endFill=1;endSize=5;jettySize=auto;orthogonalLoop=1;strokeWidth=1;fontFamily=Verdana;fontSize=12;exitX=0.5;exitY=1;exitDx=0;exitDy=0;entryX=0.5;entryY=0;entryDx=0;entryDy=0;" edge="1" parent="1" source="cFjjXUgJnyYVzmF9R8VA-14" target="cFjjXUgJnyYVzmF9R8VA-15">
          <mxGeometry relative="1" as="geometry">
            <mxPoint x="390" y="970" as="sourcePoint" />
            <mxPoint x="546.000047259035" y="809.9565217391304" as="targetPoint" />
          </mxGeometry>
        </mxCell>
      </root>
    </mxGraphModel>
  </diagram>
</mxfile>
